# xmcd
# 
# Track frame offsets:
#     150
#     15309
#     32731
# 
# Disc length: 666
# 
# Revision: 2
# Processed by: cddbd v1.5.2PL0 Copyright (c) Steve Scherf et al.
# Submitted via: fre:ac v1.0.27
# 
DISCID=15029803
DTITLE=Andreas Schenker - Die Nacht aller Engel
DYEAR=2008
DGENRE=Folk
TTITLE0=Die Nacht aller Engel (Radio Version)
TTITLE1=Die Nacht aller Engel (Disco Version)
TTITLE2=Die Nacht aller Engel (Karaoke Version)
EXTD=
EXTT0=ISRC: DE-LK5-08-99001
EXTT1=ISRC: DE-LK5-08-99002
EXTT2=ISRC: DE-LK5-08-99003
PLAYORDER=
